<?xml version="1.0" encoding="utf-8"?>
<!-- Generator: Adobe Illustrator 25.1.0, SVG Export Plug-In . SVG Version: 6.00 Build 0)  -->
<svg version="1.1" id="Logo" xmlns="http://www.w3.org/2000/svg" xmlns:xlink="http://www.w3.org/1999/xlink" x="0px" y="0px"
	 viewBox="0 0 354.78 458.76" style="enable-background:new 0 0 354.78 458.76;" xml:space="preserve">
<style type="text/css">
	.st0{fill:#39C4C5;}
	.st1{fill:#C53A39;}
</style>
<path id="RightArrow" class="st0" d="M-0.29,420.67c25.77-12.88,50.52-25.26,75.88-37.94c0,10.42,0,20.03,0,30.22
	c93.43,0,186.52,0,279.93,0c0,5.3,0,10.01,0,15.13c-93.17,0-186.14,0-279.6,0c0,10.14,0,19.9,0,30.67
	C50.33,445.97,25.56,433.59-0.29,420.67z"/>
<path id="T" class="st0" d="M264.63,324.1c30.4,0,59.89,0,89.8,0c0,14.93,0,29.64,0,44.71c-74.29,0-148.69,0-223.39,0
	c0-14.68,0-29.27,0-44.45c29.32,0,58.71,0,88.66,0c0-78.63,0-156.68,0-235c15.16,0,29.76,0,44.93,0
	C264.63,167.41,264.63,245.47,264.63,324.1z"/>
<path id="F" class="st1" d="M0.88,368.82c0-93.3,0-186.25,0-279.46c58.93,0,117.67,0,176.65,0c0,11.77,0,23.38,0,35.49
	c-43.67,0-87.41,0-131.48,0c0,28.55,0,56.61,0,85.16c43.71,0,87.45,0,131.46,0c0,12.22,0,23.94,0,35.98c-43.82,0-87.44,0-131.55,0
	c0,41.04,0,81.77,0,122.83C30.73,368.82,16,368.82,0.88,368.82z"/>
<path id="LeftArrow" class="st1" d="M279.77,75.1c0-10.42,0-19.9,0-29.84c-93.3,0-186.38,0-279.77,0c0-5.19,0-9.91,0-15.11
	c93.14,0,186.22,0,279.67,0c0-10.06,0-19.67,0-30.15c25.1,12.56,49.56,24.8,75.11,37.59C329.43,50.27,305.03,62.47,279.77,75.1z"/>
</svg>
